<svg width="24" height="24" viewBox="0 0 24 24" fill="none" xmlns="http://www.w3.org/2000/svg">
<path d="M18.0984 11.3792C18.037 11.3692 17.9749 11.3646 17.9128 11.3655H7.33058L7.56133 11.2581C7.78688 11.1514 7.99207 11.0061 8.16771 10.8288L11.1352 7.86132C11.5261 7.48823 11.5917 6.88805 11.2908 6.43927C10.9407 5.96104 10.2691 5.8572 9.79086 6.20738C9.75222 6.23569 9.7155 6.26655 9.68098 6.29975L4.31477 11.666C3.8954 12.0849 3.89503 12.7644 4.31393 13.1838C4.3142 13.184 4.3145 13.1843 4.31477 13.1846L9.68098 18.5508C10.1007 18.9693 10.7802 18.9684 11.1988 18.5487C11.2317 18.5157 11.2625 18.4805 11.2908 18.4435C11.5917 17.9947 11.5261 17.3945 11.1352 17.0214L8.17308 14.0486C8.01561 13.8909 7.83457 13.7588 7.63646 13.6568L7.31448 13.5119H17.8537C18.402 13.5323 18.883 13.1493 18.986 12.6104C19.0809 12.0253 18.6835 11.4741 18.0984 11.3792Z" fill="black"/>
</svg>
