<svg width="24" height="24" viewBox="0 0 24 24" fill="none" xmlns="http://www.w3.org/2000/svg">
<path d="M12.8742 12.5L18.715 6.65908C19.0951 6.27916 19.0951 5.66487 18.715 5.28494C18.335 4.90502 17.7207 4.90502 17.3408 5.28494L11.4999 11.1258L5.65922 5.28494C5.27911 4.90502 4.665 4.90502 4.28508 5.28494C3.90497 5.66487 3.90497 6.27916 4.28508 6.65908L10.1258 12.5L4.28508 18.3408C3.90497 18.7208 3.90497 19.3351 4.28508 19.715C4.47442 19.9045 4.72337 19.9997 4.97215 19.9997C5.22092 19.9997 5.4697 19.9045 5.65922 19.715L11.4999 13.8741L17.3408 19.715C17.5303 19.9045 17.7791 19.9997 18.0279 19.9997C18.2767 19.9997 18.5254 19.9045 18.715 19.715C19.0951 19.3351 19.0951 18.7208 18.715 18.3408L12.8742 12.5Z" fill="black"/>
</svg>
