<svg width="24" height="24" viewBox="0 0 24 24" fill="none" xmlns="http://www.w3.org/2000/svg">
<path d="M17.8964 7.49996C17.8964 8.62183 16.9871 9.53129 15.8652 9.53129C14.7433 9.53129 13.834 8.62183 13.834 7.49996C13.834 6.37821 14.7433 5.46875 15.8652 5.46875C16.9871 5.46875 17.8964 6.37821 17.8964 7.49996V7.49996Z" fill="black"/>
<path d="M15.8652 10C14.4864 10 13.3652 8.87875 13.3652 7.49996C13.3652 6.12129 14.4864 5 15.8652 5C17.244 5 18.3652 6.12129 18.3652 7.49996C18.3652 8.87875 17.244 10 15.8652 10ZM15.8652 5.9375C15.0033 5.9375 14.3027 6.63879 14.3027 7.49996C14.3027 8.36124 15.0033 9.06254 15.8652 9.06254C16.7271 9.06254 17.4277 8.36124 17.4277 7.49996C17.4277 6.63879 16.7271 5.9375 15.8652 5.9375Z" fill="black"/>
<path d="M17.8964 17.5001C17.8964 18.6218 16.9871 19.5313 15.8652 19.5313C14.7433 19.5313 13.834 18.6218 13.834 17.5001C13.834 16.3782 14.7433 15.4688 15.8652 15.4688C16.9871 15.4688 17.8964 16.3782 17.8964 17.5001V17.5001Z" fill="black"/>
<path d="M15.8652 20C14.4864 20 13.3652 18.8787 13.3652 17.5001C13.3652 16.1213 14.4864 15 15.8652 15C17.244 15 18.3652 16.1213 18.3652 17.5001C18.3652 18.8787 17.244 20 15.8652 20ZM15.8652 15.9375C15.0033 15.9375 14.3027 16.6388 14.3027 17.5001C14.3027 18.3612 15.0033 19.0625 15.8652 19.0625C16.7271 19.0625 17.4277 18.3612 17.4277 17.5001C17.4277 16.6388 16.7271 15.9375 15.8652 15.9375V15.9375Z" fill="black"/>
<path d="M9.14652 12.5C9.14652 13.6218 8.23706 14.5312 7.1152 14.5312C5.99345 14.5312 5.08398 13.6218 5.08398 12.5C5.08398 11.3781 5.99345 10.4688 7.1152 10.4688C8.23706 10.4688 9.14652 11.3781 9.14652 12.5Z" fill="black"/>
<path d="M7.1152 14.9999C5.73653 14.9999 4.61523 13.8787 4.61523 12.5C4.61523 11.1212 5.73653 10 7.1152 10C8.49398 10 9.61527 11.1212 9.61527 12.5C9.61527 13.8787 8.49398 14.9999 7.1152 14.9999ZM7.1152 10.9375C6.25334 10.9375 5.55273 11.6387 5.55273 12.5C5.55273 13.3612 6.25334 14.0624 7.1152 14.0624C7.97717 14.0624 8.67777 13.3612 8.67777 12.5C8.67777 11.6387 7.97717 10.9375 7.1152 10.9375Z" fill="black"/>
<path d="M8.59096 12.1996C8.3734 12.1996 8.16215 12.0864 8.04713 11.884C7.8765 11.5846 7.98156 11.2027 8.28093 11.0314L14.0802 7.72521C14.3796 7.55332 14.7615 7.65838 14.9328 7.9589C15.1034 8.25828 14.9984 8.64017 14.699 8.81148L8.8996 12.1177C8.8021 12.1733 8.6959 12.1996 8.59096 12.1996V12.1996Z" fill="black"/>
<path d="M14.3896 17.3563C14.2846 17.3563 14.1784 17.3299 14.0809 17.2743L8.28146 13.9681C7.98208 13.7975 7.87714 13.4156 8.04777 13.1155C8.21772 12.8156 8.60018 12.7099 8.90024 12.8818L14.6996 16.188C14.999 16.3587 15.104 16.7406 14.9333 17.0406C14.8177 17.2431 14.6065 17.3563 14.3896 17.3563V17.3563Z" fill="black"/>
</svg>
